<mxfile host="app.diagrams.net" modified="2024-02-28T16:15:24.247Z" agent="Mozilla/5.0 (Macintosh; Intel Mac OS X 10_15_7) AppleWebKit/537.36 (KHTML, like Gecko) Chrome/122.0.0.0 Safari/537.36" etag="bwK2Xt70s1wR1v49M1nR" version="23.1.7" type="google">
  <diagram name="Page-1" id="Jm44jh3J3yEsOO3PP3gj">
    <mxGraphModel grid="1" page="1" gridSize="10" guides="1" tooltips="1" connect="1" arrows="1" fold="1" pageScale="1" pageWidth="850" pageHeight="1100" background="none" math="0" shadow="0">
      <root>
        <mxCell id="0" />
        <mxCell id="1" parent="0" />
        <mxCell id="ZnAJl2LF7m-favHDadqI-1" value="" style="whiteSpace=wrap;html=1;aspect=fixed;fontStyle=4" vertex="1" parent="1">
          <mxGeometry x="140" y="150" width="985" height="985" as="geometry" />
        </mxCell>
        <mxCell id="ZnAJl2LF7m-favHDadqI-2" value="Buyer" style="shape=umlActor;verticalLabelPosition=bottom;verticalAlign=top;html=1;outlineConnect=0;" vertex="1" parent="1">
          <mxGeometry x="20" y="590" width="30" height="60" as="geometry" />
        </mxCell>
        <mxCell id="ZnAJl2LF7m-favHDadqI-3" value="Seller" style="shape=umlActor;verticalLabelPosition=bottom;verticalAlign=top;html=1;outlineConnect=0;" vertex="1" parent="1">
          <mxGeometry x="60" y="645" width="30" height="60" as="geometry" />
        </mxCell>
        <mxCell id="ZnAJl2LF7m-favHDadqI-6" value="Agency" style="shape=umlActor;verticalLabelPosition=bottom;verticalAlign=top;html=1;outlineConnect=0;" vertex="1" parent="1">
          <mxGeometry x="1180" y="450" width="30" height="60" as="geometry" />
        </mxCell>
        <mxCell id="ZnAJl2LF7m-favHDadqI-7" value="&lt;font style=&quot;font-size: 21px;&quot;&gt;Bahrain Showroom&lt;/font&gt;" style="text;html=1;strokeColor=none;fillColor=none;align=center;verticalAlign=middle;whiteSpace=wrap;rounded=0;" vertex="1" parent="1">
          <mxGeometry x="480" y="60" width="280" height="60" as="geometry" />
        </mxCell>
        <mxCell id="ZnAJl2LF7m-favHDadqI-8" value="" style="ellipse;whiteSpace=wrap;html=1;" vertex="1" parent="1">
          <mxGeometry x="212.5" y="735" width="120" height="80" as="geometry" />
        </mxCell>
        <mxCell id="ZnAJl2LF7m-favHDadqI-9" value="User" style="shape=umlActor;verticalLabelPosition=bottom;verticalAlign=top;html=1;outlineConnect=0;" vertex="1" parent="1">
          <mxGeometry x="40" y="460" width="30" height="60" as="geometry" />
        </mxCell>
        <mxCell id="ZnAJl2LF7m-favHDadqI-14" value="" style="endArrow=classic;html=1;rounded=0;exitX=0.5;exitY=0.5;exitDx=0;exitDy=0;exitPerimeter=0;entryX=0;entryY=1;entryDx=0;entryDy=0;entryPerimeter=0;" edge="1" parent="1" source="ZnAJl2LF7m-favHDadqI-2" target="ZnAJl2LF7m-favHDadqI-9">
          <mxGeometry width="50" height="50" relative="1" as="geometry">
            <mxPoint x="250" y="490" as="sourcePoint" />
            <mxPoint x="300" y="440" as="targetPoint" />
            <Array as="points" />
          </mxGeometry>
        </mxCell>
        <mxCell id="ZnAJl2LF7m-favHDadqI-15" value="" style="endArrow=classic;html=1;rounded=0;exitX=0.5;exitY=0.5;exitDx=0;exitDy=0;exitPerimeter=0;entryX=1;entryY=1;entryDx=0;entryDy=0;entryPerimeter=0;" edge="1" parent="1" source="ZnAJl2LF7m-favHDadqI-3" target="ZnAJl2LF7m-favHDadqI-9">
          <mxGeometry width="50" height="50" relative="1" as="geometry">
            <mxPoint x="250" y="490" as="sourcePoint" />
            <mxPoint x="300" y="440" as="targetPoint" />
            <Array as="points" />
          </mxGeometry>
        </mxCell>
        <mxCell id="ZnAJl2LF7m-favHDadqI-16" value="Search for Cars" style="text;html=1;strokeColor=none;fillColor=none;align=center;verticalAlign=middle;whiteSpace=wrap;rounded=0;" vertex="1" parent="1">
          <mxGeometry x="202.5" y="760" width="140" height="30" as="geometry" />
        </mxCell>
        <mxCell id="ZnAJl2LF7m-favHDadqI-18" value="" style="ellipse;whiteSpace=wrap;html=1;" vertex="1" parent="1">
          <mxGeometry x="420" y="665" width="120" height="80" as="geometry" />
        </mxCell>
        <mxCell id="ZnAJl2LF7m-favHDadqI-19" value="View Car Details" style="text;html=1;strokeColor=none;fillColor=none;align=center;verticalAlign=middle;whiteSpace=wrap;rounded=0;" vertex="1" parent="1">
          <mxGeometry x="410" y="690" width="140" height="30" as="geometry" />
        </mxCell>
        <mxCell id="ZnAJl2LF7m-favHDadqI-20" value="" style="ellipse;whiteSpace=wrap;html=1;" vertex="1" parent="1">
          <mxGeometry x="217.5" y="942.5" width="120" height="80" as="geometry" />
        </mxCell>
        <mxCell id="ZnAJl2LF7m-favHDadqI-21" value="Add Car to Wishlist" style="text;html=1;strokeColor=none;fillColor=none;align=center;verticalAlign=middle;whiteSpace=wrap;rounded=0;" vertex="1" parent="1">
          <mxGeometry x="207.5" y="967.5" width="140" height="30" as="geometry" />
        </mxCell>
        <mxCell id="ZnAJl2LF7m-favHDadqI-22" value="" style="ellipse;whiteSpace=wrap;html=1;" vertex="1" parent="1">
          <mxGeometry x="410" y="947.5" width="120" height="80" as="geometry" />
        </mxCell>
        <mxCell id="ZnAJl2LF7m-favHDadqI-23" value="Remove Car from Wishlist" style="text;html=1;strokeColor=none;fillColor=none;align=center;verticalAlign=middle;whiteSpace=wrap;rounded=0;" vertex="1" parent="1">
          <mxGeometry x="405" y="972.5" width="140" height="30" as="geometry" />
        </mxCell>
        <mxCell id="ZnAJl2LF7m-favHDadqI-24" value="" style="ellipse;whiteSpace=wrap;html=1;" vertex="1" parent="1">
          <mxGeometry x="202.5" y="170" width="120" height="80" as="geometry" />
        </mxCell>
        <mxCell id="ZnAJl2LF7m-favHDadqI-25" value="Register" style="text;html=1;strokeColor=none;fillColor=none;align=center;verticalAlign=middle;whiteSpace=wrap;rounded=0;" vertex="1" parent="1">
          <mxGeometry x="232.5" y="195" width="60" height="30" as="geometry" />
        </mxCell>
        <mxCell id="ZnAJl2LF7m-favHDadqI-26" value="" style="ellipse;whiteSpace=wrap;html=1;" vertex="1" parent="1">
          <mxGeometry x="337.5" y="242.5" width="120" height="80" as="geometry" />
        </mxCell>
        <mxCell id="ZnAJl2LF7m-favHDadqI-27" value="Login" style="text;html=1;strokeColor=none;fillColor=none;align=center;verticalAlign=middle;whiteSpace=wrap;rounded=0;" vertex="1" parent="1">
          <mxGeometry x="367.5" y="267.5" width="60" height="30" as="geometry" />
        </mxCell>
        <mxCell id="ZnAJl2LF7m-favHDadqI-28" value="" style="ellipse;whiteSpace=wrap;html=1;" vertex="1" parent="1">
          <mxGeometry x="212.5" y="440" width="120" height="80" as="geometry" />
        </mxCell>
        <mxCell id="ZnAJl2LF7m-favHDadqI-29" value="Create User Profile" style="text;html=1;strokeColor=none;fillColor=none;align=center;verticalAlign=middle;whiteSpace=wrap;rounded=0;" vertex="1" parent="1">
          <mxGeometry x="232.5" y="465" width="80" height="30" as="geometry" />
        </mxCell>
        <mxCell id="ZnAJl2LF7m-favHDadqI-30" style="edgeStyle=orthogonalEdgeStyle;rounded=0;orthogonalLoop=1;jettySize=auto;html=1;exitX=0.5;exitY=1;exitDx=0;exitDy=0;" edge="1" parent="1" source="ZnAJl2LF7m-favHDadqI-29" target="ZnAJl2LF7m-favHDadqI-29">
          <mxGeometry relative="1" as="geometry" />
        </mxCell>
        <mxCell id="ZnAJl2LF7m-favHDadqI-33" value="" style="ellipse;whiteSpace=wrap;html=1;" vertex="1" parent="1">
          <mxGeometry x="210" y="322.5" width="120" height="80" as="geometry" />
        </mxCell>
        <mxCell id="ZnAJl2LF7m-favHDadqI-34" value="Logout" style="text;html=1;strokeColor=none;fillColor=none;align=center;verticalAlign=middle;whiteSpace=wrap;rounded=0;" vertex="1" parent="1">
          <mxGeometry x="245" y="347.5" width="60" height="30" as="geometry" />
        </mxCell>
        <mxCell id="ZnAJl2LF7m-favHDadqI-35" value="" style="ellipse;whiteSpace=wrap;html=1;" vertex="1" parent="1">
          <mxGeometry x="322.5" y="550" width="120" height="80" as="geometry" />
        </mxCell>
        <mxCell id="ZnAJl2LF7m-favHDadqI-36" value="Sell Car" style="text;html=1;strokeColor=none;fillColor=none;align=center;verticalAlign=middle;whiteSpace=wrap;rounded=0;" vertex="1" parent="1">
          <mxGeometry x="352.5" y="575" width="60" height="30" as="geometry" />
        </mxCell>
        <mxCell id="ZnAJl2LF7m-favHDadqI-37" value="" style="ellipse;whiteSpace=wrap;html=1;" vertex="1" parent="1">
          <mxGeometry x="212.5" y="640" width="120" height="80" as="geometry" />
        </mxCell>
        <mxCell id="ZnAJl2LF7m-favHDadqI-38" value="Buy Car" style="text;html=1;strokeColor=none;fillColor=none;align=center;verticalAlign=middle;whiteSpace=wrap;rounded=0;" vertex="1" parent="1">
          <mxGeometry x="242.5" y="665" width="60" height="30" as="geometry" />
        </mxCell>
        <mxCell id="ZnAJl2LF7m-favHDadqI-39" value="" style="ellipse;whiteSpace=wrap;html=1;" vertex="1" parent="1">
          <mxGeometry x="232.5" y="835" width="120" height="80" as="geometry" />
        </mxCell>
        <mxCell id="ZnAJl2LF7m-favHDadqI-40" value="Request Spare Parts" style="text;html=1;strokeColor=none;fillColor=none;align=center;verticalAlign=middle;whiteSpace=wrap;rounded=0;" vertex="1" parent="1">
          <mxGeometry x="242.5" y="857.5" width="100" height="35" as="geometry" />
        </mxCell>
        <mxCell id="ZnAJl2LF7m-favHDadqI-41" value="" style="ellipse;whiteSpace=wrap;html=1;" vertex="1" parent="1">
          <mxGeometry x="615" y="317.5" width="145" height="90" as="geometry" />
        </mxCell>
        <mxCell id="ZnAJl2LF7m-favHDadqI-42" value="Automatic Insurance &amp;amp; Maintenance Notifications" style="text;html=1;strokeColor=none;fillColor=none;align=center;verticalAlign=middle;whiteSpace=wrap;rounded=0;" vertex="1" parent="1">
          <mxGeometry x="630" y="350" width="120" height="25" as="geometry" />
        </mxCell>
        <mxCell id="ZnAJl2LF7m-favHDadqI-43" value="" style="ellipse;whiteSpace=wrap;html=1;" vertex="1" parent="1">
          <mxGeometry x="515" y="430" width="120" height="80" as="geometry" />
        </mxCell>
        <mxCell id="ZnAJl2LF7m-favHDadqI-44" value="Automatic Cost Estimation" style="text;html=1;strokeColor=none;fillColor=none;align=center;verticalAlign=middle;whiteSpace=wrap;rounded=0;" vertex="1" parent="1">
          <mxGeometry x="545" y="455" width="60" height="30" as="geometry" />
        </mxCell>
        <mxCell id="ZnAJl2LF7m-favHDadqI-45" value="" style="ellipse;whiteSpace=wrap;html=1;" vertex="1" parent="1">
          <mxGeometry x="810" y="530" width="120" height="80" as="geometry" />
        </mxCell>
        <mxCell id="ZnAJl2LF7m-favHDadqI-46" value="Payment Processing &amp;amp; Plans" style="text;html=1;strokeColor=none;fillColor=none;align=center;verticalAlign=middle;whiteSpace=wrap;rounded=0;" vertex="1" parent="1">
          <mxGeometry x="825" y="555" width="90" height="30" as="geometry" />
        </mxCell>
        <mxCell id="ZnAJl2LF7m-favHDadqI-47" value="" style="ellipse;whiteSpace=wrap;html=1;" vertex="1" parent="1">
          <mxGeometry x="552.5" y="207.5" width="120" height="80" as="geometry" />
        </mxCell>
        <mxCell id="ZnAJl2LF7m-favHDadqI-49" value="OTP Authentication" style="text;html=1;strokeColor=none;fillColor=none;align=center;verticalAlign=middle;whiteSpace=wrap;rounded=0;" vertex="1" parent="1">
          <mxGeometry x="567.5" y="232.5" width="90" height="30" as="geometry" />
        </mxCell>
        <mxCell id="ZnAJl2LF7m-favHDadqI-50" value="" style="ellipse;whiteSpace=wrap;html=1;" vertex="1" parent="1">
          <mxGeometry x="725" y="870" width="120" height="80" as="geometry" />
        </mxCell>
        <mxCell id="ZnAJl2LF7m-favHDadqI-51" value="license Plate Recognition" style="text;html=1;strokeColor=none;fillColor=none;align=center;verticalAlign=middle;whiteSpace=wrap;rounded=0;" vertex="1" parent="1">
          <mxGeometry x="730" y="895" width="110" height="30" as="geometry" />
        </mxCell>
        <mxCell id="ZnAJl2LF7m-favHDadqI-52" value="" style="ellipse;whiteSpace=wrap;html=1;" vertex="1" parent="1">
          <mxGeometry x="660" y="660" width="120" height="80" as="geometry" />
        </mxCell>
        <mxCell id="ZnAJl2LF7m-favHDadqI-53" value="Request Test Drive" style="text;html=1;strokeColor=none;fillColor=none;align=center;verticalAlign=middle;whiteSpace=wrap;rounded=0;" vertex="1" parent="1">
          <mxGeometry x="690" y="685" width="60" height="32" as="geometry" />
        </mxCell>
        <mxCell id="ZnAJl2LF7m-favHDadqI-54" value="" style="ellipse;whiteSpace=wrap;html=1;" vertex="1" parent="1">
          <mxGeometry x="780" y="755" width="120" height="80" as="geometry" />
        </mxCell>
        <mxCell id="ZnAJl2LF7m-favHDadqI-55" value="Export Ads" style="text;html=1;strokeColor=none;fillColor=none;align=center;verticalAlign=middle;whiteSpace=wrap;rounded=0;" vertex="1" parent="1">
          <mxGeometry x="810" y="780" width="60" height="30" as="geometry" />
        </mxCell>
        <mxCell id="ZnAJl2LF7m-favHDadqI-56" value="" style="ellipse;whiteSpace=wrap;html=1;" vertex="1" parent="1">
          <mxGeometry x="430" y="790" width="120" height="80" as="geometry" />
        </mxCell>
        <mxCell id="ZnAJl2LF7m-favHDadqI-57" value="Search Filters" style="text;html=1;strokeColor=none;fillColor=none;align=center;verticalAlign=middle;whiteSpace=wrap;rounded=0;" vertex="1" parent="1">
          <mxGeometry x="460" y="817.5" width="57.5" height="27.5" as="geometry" />
        </mxCell>
        <mxCell id="ZnAJl2LF7m-favHDadqI-58" value="" style="ellipse;whiteSpace=wrap;html=1;" vertex="1" parent="1">
          <mxGeometry x="537.5" y="580" width="120" height="80" as="geometry" />
        </mxCell>
        <mxCell id="ZnAJl2LF7m-favHDadqI-59" value="Car Picture Recognition" style="text;html=1;strokeColor=none;fillColor=none;align=center;verticalAlign=middle;whiteSpace=wrap;rounded=0;" vertex="1" parent="1">
          <mxGeometry x="567.5" y="605" width="60" height="30" as="geometry" />
        </mxCell>
        <mxCell id="ZnAJl2LF7m-favHDadqI-60" value="" style="ellipse;whiteSpace=wrap;html=1;" vertex="1" parent="1">
          <mxGeometry x="885" y="835" width="120" height="80" as="geometry" />
        </mxCell>
        <mxCell id="ZnAJl2LF7m-favHDadqI-61" value="Text Extraction" style="text;html=1;strokeColor=none;fillColor=none;align=center;verticalAlign=middle;whiteSpace=wrap;rounded=0;" vertex="1" parent="1">
          <mxGeometry x="915" y="860" width="60" height="30" as="geometry" />
        </mxCell>
        <mxCell id="ZnAJl2LF7m-favHDadqI-62" value="" style="ellipse;whiteSpace=wrap;html=1;" vertex="1" parent="1">
          <mxGeometry x="605" y="810" width="120" height="80" as="geometry" />
        </mxCell>
        <mxCell id="ZnAJl2LF7m-favHDadqI-63" value="Limit Ability to Post Ads" style="text;html=1;strokeColor=none;fillColor=none;align=center;verticalAlign=middle;whiteSpace=wrap;rounded=0;" vertex="1" parent="1">
          <mxGeometry x="635" y="835" width="60" height="30" as="geometry" />
        </mxCell>
        <mxCell id="ZnAJl2LF7m-favHDadqI-64" value="" style="ellipse;whiteSpace=wrap;html=1;" vertex="1" parent="1">
          <mxGeometry x="910" y="690" width="120" height="80" as="geometry" />
        </mxCell>
        <mxCell id="ZnAJl2LF7m-favHDadqI-65" value="Ban Duplicate Ads" style="text;html=1;strokeColor=none;fillColor=none;align=center;verticalAlign=middle;whiteSpace=wrap;rounded=0;" vertex="1" parent="1">
          <mxGeometry x="940" y="715" width="60" height="30" as="geometry" />
        </mxCell>
        <mxCell id="h_7pdPW95NUMRIpp7S7h-3" value="" style="endArrow=none;html=1;rounded=0;" edge="1" parent="1" source="ZnAJl2LF7m-favHDadqI-9" target="ZnAJl2LF7m-favHDadqI-24">
          <mxGeometry width="50" height="50" relative="1" as="geometry">
            <mxPoint x="570" y="520" as="sourcePoint" />
            <mxPoint x="620" y="470" as="targetPoint" />
          </mxGeometry>
        </mxCell>
        <mxCell id="h_7pdPW95NUMRIpp7S7h-5" value="" style="endArrow=none;html=1;rounded=0;entryX=0;entryY=0.5;entryDx=0;entryDy=0;exitX=0.5;exitY=0.5;exitDx=0;exitDy=0;exitPerimeter=0;" edge="1" parent="1" source="ZnAJl2LF7m-favHDadqI-9" target="ZnAJl2LF7m-favHDadqI-26">
          <mxGeometry width="50" height="50" relative="1" as="geometry">
            <mxPoint x="90" y="351" as="sourcePoint" />
            <mxPoint x="215" y="277" as="targetPoint" />
          </mxGeometry>
        </mxCell>
        <mxCell id="h_7pdPW95NUMRIpp7S7h-7" value="&amp;lt;&amp;lt;include&amp;gt;&amp;gt;" style="html=1;verticalAlign=bottom;labelBackgroundColor=none;endArrow=open;endFill=0;dashed=1;rounded=0;entryX=1;entryY=0.5;entryDx=0;entryDy=0;exitX=0;exitY=0.5;exitDx=0;exitDy=0;" edge="1" parent="1" source="ZnAJl2LF7m-favHDadqI-47" target="ZnAJl2LF7m-favHDadqI-26">
          <mxGeometry x="0.078" y="25" width="160" relative="1" as="geometry">
            <mxPoint x="667.5" y="382.5" as="sourcePoint" />
            <mxPoint x="797.5" y="382.5" as="targetPoint" />
            <mxPoint as="offset" />
          </mxGeometry>
        </mxCell>
        <mxCell id="h_7pdPW95NUMRIpp7S7h-12" value="&amp;lt;&amp;lt;extend&amp;gt;&amp;gt;" style="html=1;verticalAlign=bottom;labelBackgroundColor=none;endArrow=open;endFill=0;dashed=1;rounded=0;entryX=1;entryY=0.5;entryDx=0;entryDy=0;exitX=0;exitY=0.5;exitDx=0;exitDy=0;" edge="1" parent="1" source="ZnAJl2LF7m-favHDadqI-56" target="ZnAJl2LF7m-favHDadqI-8">
          <mxGeometry width="160" relative="1" as="geometry">
            <mxPoint x="450" y="600" as="sourcePoint" />
            <mxPoint x="610" y="600" as="targetPoint" />
          </mxGeometry>
        </mxCell>
        <mxCell id="h_7pdPW95NUMRIpp7S7h-13" value="" style="endArrow=none;html=1;rounded=0;entryX=0;entryY=0.5;entryDx=0;entryDy=0;exitX=0.5;exitY=0.5;exitDx=0;exitDy=0;exitPerimeter=0;" edge="1" parent="1" source="ZnAJl2LF7m-favHDadqI-9" target="ZnAJl2LF7m-favHDadqI-28">
          <mxGeometry width="50" height="50" relative="1" as="geometry">
            <mxPoint x="75" y="360" as="sourcePoint" />
            <mxPoint x="360" y="275" as="targetPoint" />
          </mxGeometry>
        </mxCell>
        <mxCell id="h_7pdPW95NUMRIpp7S7h-14" value="" style="endArrow=none;html=1;rounded=0;entryX=0;entryY=0.5;entryDx=0;entryDy=0;" edge="1" parent="1" source="ZnAJl2LF7m-favHDadqI-9" target="ZnAJl2LF7m-favHDadqI-33">
          <mxGeometry width="50" height="50" relative="1" as="geometry">
            <mxPoint x="75" y="360" as="sourcePoint" />
            <mxPoint x="360" y="275" as="targetPoint" />
          </mxGeometry>
        </mxCell>
        <mxCell id="h_7pdPW95NUMRIpp7S7h-15" value="" style="endArrow=none;html=1;rounded=0;entryX=0;entryY=0;entryDx=0;entryDy=0;exitX=0.5;exitY=0.5;exitDx=0;exitDy=0;exitPerimeter=0;" edge="1" parent="1" source="ZnAJl2LF7m-favHDadqI-9" target="ZnAJl2LF7m-favHDadqI-35">
          <mxGeometry width="50" height="50" relative="1" as="geometry">
            <mxPoint x="90" y="358" as="sourcePoint" />
            <mxPoint x="565" y="280" as="targetPoint" />
          </mxGeometry>
        </mxCell>
        <mxCell id="h_7pdPW95NUMRIpp7S7h-16" value="&amp;lt;&amp;lt;include&amp;gt;&amp;gt;" style="html=1;verticalAlign=bottom;labelBackgroundColor=none;endArrow=open;endFill=0;dashed=1;rounded=0;entryX=1;entryY=0.5;entryDx=0;entryDy=0;exitX=0;exitY=0.5;exitDx=0;exitDy=0;" edge="1" parent="1" source="ZnAJl2LF7m-favHDadqI-58" target="ZnAJl2LF7m-favHDadqI-35">
          <mxGeometry x="-0.0526" y="-10" width="160" relative="1" as="geometry">
            <mxPoint x="532.5" y="390" as="sourcePoint" />
            <mxPoint x="532.5" y="280" as="targetPoint" />
            <mxPoint as="offset" />
          </mxGeometry>
        </mxCell>
        <mxCell id="h_7pdPW95NUMRIpp7S7h-17" value="&amp;lt;&amp;lt;include&amp;gt;&amp;gt;" style="html=1;verticalAlign=bottom;labelBackgroundColor=none;endArrow=open;endFill=0;dashed=1;rounded=0;entryX=1;entryY=0;entryDx=0;entryDy=0;exitX=0;exitY=0;exitDx=0;exitDy=0;" edge="1" parent="1" source="ZnAJl2LF7m-favHDadqI-22" target="ZnAJl2LF7m-favHDadqI-20">
          <mxGeometry x="0.4425" y="-8" width="160" relative="1" as="geometry">
            <mxPoint x="420" y="455" as="sourcePoint" />
            <mxPoint x="420" y="345" as="targetPoint" />
            <mxPoint as="offset" />
          </mxGeometry>
        </mxCell>
        <mxCell id="h_7pdPW95NUMRIpp7S7h-19" value="&amp;lt;&amp;lt;include&amp;gt;&amp;gt;" style="html=1;verticalAlign=bottom;labelBackgroundColor=none;endArrow=open;endFill=0;dashed=1;rounded=0;entryX=1;entryY=0.5;entryDx=0;entryDy=0;exitX=0;exitY=0;exitDx=0;exitDy=0;" edge="1" parent="1" source="ZnAJl2LF7m-favHDadqI-47" target="ZnAJl2LF7m-favHDadqI-24">
          <mxGeometry x="-0.3846" width="160" relative="1" as="geometry">
            <mxPoint x="420" y="380" as="sourcePoint" />
            <mxPoint x="420" y="270" as="targetPoint" />
            <mxPoint as="offset" />
          </mxGeometry>
        </mxCell>
        <mxCell id="h_7pdPW95NUMRIpp7S7h-22" value="" style="endArrow=none;html=1;rounded=0;exitX=0.5;exitY=0.5;exitDx=0;exitDy=0;exitPerimeter=0;entryX=0;entryY=0;entryDx=0;entryDy=0;" edge="1" parent="1" source="ZnAJl2LF7m-favHDadqI-9" target="ZnAJl2LF7m-favHDadqI-8">
          <mxGeometry width="50" height="50" relative="1" as="geometry">
            <mxPoint x="90" y="390" as="sourcePoint" />
            <mxPoint x="200" y="700" as="targetPoint" />
          </mxGeometry>
        </mxCell>
        <mxCell id="h_7pdPW95NUMRIpp7S7h-24" value="" style="endArrow=none;html=1;rounded=0;entryX=0.5;entryY=0.5;entryDx=0;entryDy=0;entryPerimeter=0;exitX=1;exitY=0.5;exitDx=0;exitDy=0;" edge="1" parent="1" source="ZnAJl2LF7m-favHDadqI-45" target="ZnAJl2LF7m-favHDadqI-6">
          <mxGeometry width="50" height="50" relative="1" as="geometry">
            <mxPoint x="580" y="550" as="sourcePoint" />
            <mxPoint x="630" y="500" as="targetPoint" />
          </mxGeometry>
        </mxCell>
        <mxCell id="h_7pdPW95NUMRIpp7S7h-26" value="" style="endArrow=none;html=1;rounded=0;exitX=0.5;exitY=0.5;exitDx=0;exitDy=0;exitPerimeter=0;entryX=0;entryY=0;entryDx=0;entryDy=0;" edge="1" parent="1" source="ZnAJl2LF7m-favHDadqI-9" target="ZnAJl2LF7m-favHDadqI-37">
          <mxGeometry width="50" height="50" relative="1" as="geometry">
            <mxPoint x="75" y="360" as="sourcePoint" />
            <mxPoint x="418" y="548" as="targetPoint" />
          </mxGeometry>
        </mxCell>
        <mxCell id="h_7pdPW95NUMRIpp7S7h-27" value="&amp;lt;&amp;lt;include&amp;gt;&amp;gt;" style="html=1;verticalAlign=bottom;labelBackgroundColor=none;endArrow=open;endFill=0;dashed=1;rounded=0;entryX=1;entryY=0.5;entryDx=0;entryDy=0;exitX=0;exitY=0;exitDx=0;exitDy=0;" edge="1" parent="1" source="ZnAJl2LF7m-favHDadqI-18" target="ZnAJl2LF7m-favHDadqI-37">
          <mxGeometry x="-0.0354" y="-18" width="160" relative="1" as="geometry">
            <mxPoint x="420" y="679.33" as="sourcePoint" />
            <mxPoint x="325" y="679.33" as="targetPoint" />
            <mxPoint as="offset" />
          </mxGeometry>
        </mxCell>
        <mxCell id="h_7pdPW95NUMRIpp7S7h-28" value="&amp;lt;&amp;lt;include&amp;gt;&amp;gt;" style="html=1;verticalAlign=bottom;labelBackgroundColor=none;endArrow=open;endFill=0;dashed=1;rounded=0;entryX=1;entryY=0;entryDx=0;entryDy=0;exitX=0;exitY=1;exitDx=0;exitDy=0;" edge="1" parent="1" source="ZnAJl2LF7m-favHDadqI-43" target="ZnAJl2LF7m-favHDadqI-35">
          <mxGeometry x="-0.1139" y="-13" width="160" relative="1" as="geometry">
            <mxPoint x="435" y="590" as="sourcePoint" />
            <mxPoint x="340" y="590" as="targetPoint" />
            <mxPoint as="offset" />
          </mxGeometry>
        </mxCell>
        <mxCell id="h_7pdPW95NUMRIpp7S7h-31" value="&amp;lt;&amp;lt;extend&amp;gt;&amp;gt;" style="html=1;verticalAlign=bottom;labelBackgroundColor=none;endArrow=open;endFill=0;dashed=1;rounded=0;entryX=1;entryY=0.5;entryDx=0;entryDy=0;exitX=0;exitY=0.5;exitDx=0;exitDy=0;" edge="1" parent="1" source="ZnAJl2LF7m-favHDadqI-52" target="ZnAJl2LF7m-favHDadqI-18">
          <mxGeometry width="160" relative="1" as="geometry">
            <mxPoint x="470" y="775" as="sourcePoint" />
            <mxPoint x="353" y="810" as="targetPoint" />
          </mxGeometry>
        </mxCell>
        <mxCell id="h_7pdPW95NUMRIpp7S7h-32" value="" style="ellipse;whiteSpace=wrap;html=1;" vertex="1" parent="1">
          <mxGeometry x="380" y="360" width="120" height="80" as="geometry" />
        </mxCell>
        <mxCell id="h_7pdPW95NUMRIpp7S7h-33" value="Add my cars" style="text;html=1;strokeColor=none;fillColor=none;align=center;verticalAlign=middle;whiteSpace=wrap;rounded=0;" vertex="1" parent="1">
          <mxGeometry x="395" y="385" width="90" height="30" as="geometry" />
        </mxCell>
        <mxCell id="h_7pdPW95NUMRIpp7S7h-34" value="&amp;lt;&amp;lt;extend&amp;gt;&amp;gt;" style="html=1;verticalAlign=bottom;labelBackgroundColor=none;endArrow=open;endFill=0;dashed=1;rounded=0;entryX=1;entryY=0;entryDx=0;entryDy=0;exitX=0;exitY=1;exitDx=0;exitDy=0;" edge="1" parent="1" source="h_7pdPW95NUMRIpp7S7h-32" target="ZnAJl2LF7m-favHDadqI-28">
          <mxGeometry width="160" relative="1" as="geometry">
            <mxPoint x="660" y="685" as="sourcePoint" />
            <mxPoint x="540" y="690" as="targetPoint" />
          </mxGeometry>
        </mxCell>
        <mxCell id="h_7pdPW95NUMRIpp7S7h-35" value="" style="endArrow=none;html=1;rounded=0;entryX=0.5;entryY=0.5;entryDx=0;entryDy=0;entryPerimeter=0;exitX=1;exitY=0.5;exitDx=0;exitDy=0;" edge="1" parent="1" source="ZnAJl2LF7m-favHDadqI-52" target="ZnAJl2LF7m-favHDadqI-6">
          <mxGeometry width="50" height="50" relative="1" as="geometry">
            <mxPoint x="1015" y="405" as="sourcePoint" />
            <mxPoint x="1205" y="490" as="targetPoint" />
          </mxGeometry>
        </mxCell>
        <mxCell id="h_7pdPW95NUMRIpp7S7h-36" value="&amp;lt;&amp;lt;include&amp;gt;&amp;gt;" style="html=1;verticalAlign=bottom;labelBackgroundColor=none;endArrow=open;endFill=0;dashed=1;rounded=0;entryX=1;entryY=0.5;entryDx=0;entryDy=0;exitX=0;exitY=0.5;exitDx=0;exitDy=0;" edge="1" parent="1" source="ZnAJl2LF7m-favHDadqI-41" target="h_7pdPW95NUMRIpp7S7h-32">
          <mxGeometry x="-0.1139" y="-13" width="160" relative="1" as="geometry">
            <mxPoint x="543" y="508" as="sourcePoint" />
            <mxPoint x="322" y="562" as="targetPoint" />
            <mxPoint as="offset" />
          </mxGeometry>
        </mxCell>
        <mxCell id="h_7pdPW95NUMRIpp7S7h-37" value="" style="endArrow=none;html=1;rounded=0;exitX=0.5;exitY=0.5;exitDx=0;exitDy=0;exitPerimeter=0;entryX=0;entryY=0.5;entryDx=0;entryDy=0;" edge="1" parent="1" source="ZnAJl2LF7m-favHDadqI-9" target="ZnAJl2LF7m-favHDadqI-39">
          <mxGeometry width="50" height="50" relative="1" as="geometry">
            <mxPoint x="75" y="360" as="sourcePoint" />
            <mxPoint x="240" y="757" as="targetPoint" />
          </mxGeometry>
        </mxCell>
        <mxCell id="h_7pdPW95NUMRIpp7S7h-44" value="" style="endArrow=none;html=1;rounded=0;entryX=0.5;entryY=0.5;entryDx=0;entryDy=0;entryPerimeter=0;exitX=1;exitY=0;exitDx=0;exitDy=0;" edge="1" parent="1" source="ZnAJl2LF7m-favHDadqI-35" target="ZnAJl2LF7m-favHDadqI-6">
          <mxGeometry width="50" height="50" relative="1" as="geometry">
            <mxPoint x="780" y="685" as="sourcePoint" />
            <mxPoint x="1205" y="490" as="targetPoint" />
          </mxGeometry>
        </mxCell>
        <mxCell id="h_7pdPW95NUMRIpp7S7h-45" value="" style="endArrow=none;html=1;rounded=0;entryX=0;entryY=0;entryDx=0;entryDy=0;" edge="1" parent="1" source="ZnAJl2LF7m-favHDadqI-9" target="ZnAJl2LF7m-favHDadqI-20">
          <mxGeometry width="50" height="50" relative="1" as="geometry">
            <mxPoint x="65" y="500" as="sourcePoint" />
            <mxPoint x="225" y="890" as="targetPoint" />
          </mxGeometry>
        </mxCell>
        <mxCell id="tlFJ7okwsAgKX7OVJkir-1" value="&amp;lt;&amp;lt;extend&amp;gt;&amp;gt;" style="html=1;verticalAlign=bottom;labelBackgroundColor=none;endArrow=open;endFill=0;dashed=1;rounded=0;exitX=0.004;exitY=0.639;exitDx=0;exitDy=0;entryX=0.5;entryY=0;entryDx=0;entryDy=0;exitPerimeter=0;" edge="1" parent="1" source="ZnAJl2LF7m-favHDadqI-45" target="ZnAJl2LF7m-favHDadqI-52">
          <mxGeometry width="160" relative="1" as="geometry">
            <mxPoint x="670" y="710" as="sourcePoint" />
            <mxPoint x="550" y="715" as="targetPoint" />
          </mxGeometry>
        </mxCell>
      </root>
    </mxGraphModel>
  </diagram>
</mxfile>
